Coordinates
version=1
nRows=4
nColumns=63
inDegrees=yes

Units are S.I. units (second, meters, Newtons, ...)
If the header above contains a line with 'inDegrees', this indicates whether rotational values are in degrees (yes) or radians (no).

endheader
time	pelvis_tilt	pelvis_list	pelvis_rotation	pelvis_tx	pelvis_ty	pelvis_tz	hip_flexion_r	hip_adduction_r	hip_rotation_r	knee_angle_r	knee_angle_r_beta	ankle_angle_r	subtalar_angle_r	mtp_angle_r	hip_flexion_l	hip_adduction_l	hip_rotation_l	knee_angle_l	knee_angle_l_beta	ankle_angle_l	subtalar_angle_l	mtp_angle_l	L5_S1_Flex_Ext	L5_S1_Lat_Bending	L5_S1_axial_rotation	L4_L5_Flex_Ext	L4_L5_Lat_Bending	L4_L5_axial_rotation	L3_L4_Flex_Ext	L3_L4_Lat_Bending	L3_L4_axial_rotation	L2_L3_Flex_Ext	L2_L3_Lat_Bending	L2_L3_axial_rotation	L1_L2_Flex_Ext	L1_L2_Lat_Bending	L1_L2_axial_rotation	L1_T12_Flex_Ext	L1_T12_Lat_Bending	L1_T12_axial_rotation	Abs_r3	Abs_r2	Abs_r1	Abs_t1	Abs_t2	neck_flexion	neck_bending	neck_rotation	arm_flex_r	arm_add_r	arm_rot_r	elbow_flex_r	pro_sup_r	wrist_flex_r	wrist_dev_r	arm_flex_l	arm_add_l	arm_rot_l	elbow_flex_l	pro_sup_l	wrist_flex_l	wrist_dev_l
      5.72916667	      2.29705815	     -1.38336657	    108.64474560	      0.21530924	      0.72724161	      0.75966838	      1.27812467	      5.76813149	      4.10059581	      4.94338500	      0.08627834	     31.46047074	    -12.62838536	      0.00000000	     13.69403498	     -5.94268772	      2.43946583	     23.53789839	      0.41081383	     35.11172885	     11.14832046	      0.00000000	      0.11801392	      0.33962548	      1.05416186	      0.21916365	      0.45170188	      1.12004698	      0.19388507	      0.82576538	      1.12004698	      0.13487811	      0.82576538	      0.92239163	      0.10958772	      0.69256427	      0.85650651	      0.06743315	      0.52607986	      0.79062140	      0.84296161	      3.84191130	      5.86293202	      0.00000000	      0.00000000	      8.63525469	      3.27758157	     14.86503296	     43.20712828	     -4.96338647	     47.85214871	     77.02860053	     58.39130833	      4.35930764	     15.49201994	     13.05220013	     -1.68970374	      8.43832386	     96.13508161	     63.11206214	    -15.10499022	     -7.13381036
      5.75000000	      2.30211339	     -1.14310637	    109.79576381	      0.21225632	      0.72740591	      0.75815781	      0.70203984	      5.77458218	      3.35902387	      4.65206668	      0.08119388	     31.48168527	    -12.68530267	      0.00000000	     13.32713131	     -5.75494798	      3.17275018	     23.15989513	      0.40421642	     35.34217712	     11.51479995	      0.00000000	      0.12448661	      0.35512780	      0.88226049	      0.23118409	      0.47231997	      0.93740177	      0.20451906	      0.86345772	      0.93740177	      0.14227575	      0.86345772	      0.77197793	      0.11559827	      0.72417660	      0.71683665	      0.07113165	      0.55009296	      0.66169537	      0.88919544	      4.01727665	      4.90686817	      0.00000000	      0.00000000	      8.53783901	      3.74812220	     15.58995568	     43.33185397	     -5.02242799	     49.22370883	     75.55512208	     54.56638093	      5.35909088	     15.92546991	      7.84704399	     -5.43597748	      5.21825426	    102.07842622	     65.94693137	    -14.08666018	     -2.67418359
      5.77083333	      2.33478699	     -0.98721179	    110.87329628	      0.20934962	      0.72702717	      0.75692566	      0.26513845	      5.79006241	      2.80441360	      4.46732079	      0.07796946	     31.53567524	    -12.79554844	      0.00000000	     13.07788299	     -5.60086138	      3.84808327	     22.85352001	      0.39886917	     35.54269549	     11.99036127	      0.00000000	      0.13894051	      0.36733041	      0.76637580	      0.25802642	      0.48854944	      0.81427429	      0.22826536	      0.89312715	      0.81427429	      0.15879511	      0.89312715	      0.67057883	      0.12902016	      0.74906016	      0.62268034	      0.07939061	      0.56899480	      0.57478185	      0.99243816	      4.15531502	      4.26235231	      0.00000000	      0.00000000	      8.45361247	      4.48743100	     16.69971802	     43.99633151	     -5.63173623	     49.56416885	     72.66192263	     52.19809578	      9.47283794	     16.51875743	      2.69911542	     -9.45088081	      0.41099268	    107.29006199	     70.39125682	    -12.21849155	      1.11621523
      5.79166667	      2.19746470	     -0.95855932	    111.81033165	      0.20662472	      0.72628355	      0.75587407	     -0.05282310	      5.58778796	      2.40173811	      4.41039614	      0.07697593	     31.60724750	    -12.94405082	      0.00000000	     12.83890766	     -5.28771978	      4.26729932	     22.50581334	      0.39280054	     35.71527841	     12.61575540	      0.00000000	      0.16302922	      0.34689106	      0.74687163	      0.30276157	      0.46136511	      0.79355110	      0.26784071	      0.84343093	      0.79355110	      0.18632610	      0.84343093	      0.65351267	      0.15138893	      0.70738026	      0.60683320	      0.09315490	      0.53733426	      0.56015372	      1.16450142	      3.92410108	      4.15387593	      0.00000000	      0.00000000	      8.37908577	      5.54236762	     17.50788982	     44.95419560	     -6.72086861	     49.05342901	     68.60623696	     51.72403961	     13.16272818	     17.77129932	     -0.89843849	    -12.76699602	     -4.92276167	    110.02598058	     72.73322035	    -10.24864784	      2.74300620
